<?xml version="1.0" encoding="UTF-8"?>
<svg id="Layer_1" xmlns="http://www.w3.org/2000/svg" version="1.1" viewBox="0 0 440 380">
  <!-- Generator: Adobe Illustrator 29.8.2, SVG Export Plug-In . SVG Version: 2.1.1 Build 3)  -->
  <defs>
    <style>
      .st0 {
        fill: #011627;
      }
    </style>
  </defs>
  <circle class="st0" cx="219.8" cy="235.06" r="63.67"/>
  <path class="st0" d="M113.08,220.67c3.83,0,7.1-2.71,7.83-6.47,8.84-45.48,46.98-80,98.88-80s90.04,34.52,98.88,80c.73,3.75,4.01,6.47,7.83,6.47h103.8c6.17,0,9.99-6.68,6.9-12.01-23.47-40.53-86.23-120.92-214.69-120.92-135.81,0-198.01,80.51-220.7,121.01-2.99,5.34.84,11.92,6.95,11.92h104.32Z"/>
  <path class="st0" d="M318.23,254.36c-20.35,102.68-178.53,101.59-197.19-1.52-.71-3.52-3.81-6.04-7.41-6.04H9.06c-5.83,0-9.48,6.31-6.56,11.35,23.54,40.67,86.44,120.58,217.29,120.58s193.74-79.92,217.29-120.58c2.92-5.04-.73-11.35-6.56-11.35h-102.82c-3.99-.07-8.92,3.16-9.47,7.56h0Z"/>
  <path class="st0" d="M15.93,96.33C55.94,40.27,138.23,2.01,220.08,1.96s167.4,39.56,204.33,99.3c3.17,5.08-7.35,9.31-12.1,4.9C317.56,17.87,128.23,19.47,27.41,101.88c-5.57,4-15-.43-11.48-5.55h0Z"/>
</svg>