<?xml version="1.0" encoding="UTF-8"?>
<svg id="Layer_1" xmlns="http://www.w3.org/2000/svg" version="1.1" viewBox="0 0 440 380">
  <!-- Generator: Adobe Illustrator 29.8.2, SVG Export Plug-In . SVG Version: 2.1.1 Build 3)  -->
  <defs>
    <style>
      .st0 {
        fill: #011627;
      }
    </style>
  </defs>
  <circle class="st0" cx="219.8" cy="231.06" r="63.67"/>
  <path class="st0" d="M108.08,216.67c3.83,0,7.1-2.71,7.83-6.47,8.84-45.48,51.98-80,103.88-80s95.04,34.52,103.88,80c.73,3.75,4.01,6.47,7.83,6.47h98.8c6.17,0,9.99-6.68,6.9-12.01-23.47-40.53-86.23-120.92-214.69-120.92C86.7,83.74,24.5,164.25,1.81,204.75c-2.99,5.34.84,11.92,6.95,11.92h99.32Z"/>
  <path class="st0" d="M323.23,254.36c-20.35,102.68-188.53,101.59-207.19-1.52-.71-3.52-3.81-6.04-7.41-6.04,0,0-99.57,0-99.57,0-5.83,0-9.48,6.31-6.56,11.35,23.54,40.67,86.44,120.58,217.29,120.58s193.74-79.92,217.29-120.58c2.92-5.04-.73-11.35-6.56-11.35,0,0-97.82,0-97.82,0-3.99-.07-8.92,3.16-9.47,7.56Z"/>
  <path class="st0" d="M2.98,114.62c86.16-151.6,356.82-150.99,434.4,6.58,3.37,6.79-7.82,12.43-12.87,6.54C323.74,9.86,122.4,11.99,15.19,122.03c-5.92,5.34-15.95-.57-12.21-7.41h0Z"/>
</svg>