<?xml version="1.0" encoding="UTF-8"?>
<svg id="Layer_1" xmlns="http://www.w3.org/2000/svg" version="1.1" viewBox="0 0 440 440">
  <!-- Generator: Adobe Illustrator 29.8.2, SVG Export Plug-In . SVG Version: 2.1.1 Build 3)  -->
  <defs>
    <style>
      .st0 {
        fill: #fff;
      }

      .st1 {
        fill: #011627;
      }
    </style>
  </defs>
  <rect class="st0" width="440" height="440"/>
  <circle class="st1" cx="219.76" cy="257.62" r="58.46"/>
  <path class="st1" d="M121.77,244.41c3.52,0,6.52-2.49,7.19-5.94,8.12-41.76,43.14-73.46,90.79-73.46s82.68,31.7,90.79,73.46c.67,3.44,3.68,5.94,7.19,5.94h95.31c5.67,0,9.17-6.13,6.34-11.03-21.55-37.22-79.18-103.68-197.13-103.68-124.7,0-181.82,66.58-202.65,103.77-2.75,4.9.77,10.95,6.38,10.95h95.79Z"/>
  <path class="st1" d="M310.14,275.34c-18.69,94.28-163.93,93.28-181.06-1.4-.65-3.23-3.5-5.55-6.8-5.55H26.26c-5.35,0-8.7,5.79-6.02,10.42,21.61,37.34,79.37,100.62,199.52,100.62s177.9-63.28,199.52-100.62c2.68-4.63-.67-10.42-6.02-10.42h-94.41c-3.66-.06-8.19,2.9-8.7,6.94h0Z"/>
  <path class="st1" d="M12.79,156.69C25.35,79.02,147.97,60.56,219.52,60.56s185.37,18.73,205.76,100.61c4.56,18.31-8.7,16.64-20.91.91-87.36-112.57-283.07-120.5-368.56-4.36-16.29,22.13-25.98,17.28-23.02-1.02Z"/>
</svg>